<?xml version="1.0" standalone="no"?>
<!DOCTYPE svg PUBLIC "-//W3C//DTD SVG 20010904//EN"
 "http://www.w3.org/TR/2001/REC-SVG-20010904/DTD/svg10.dtd">
<svg version="1.0" xmlns="http://www.w3.org/2000/svg"
 width="500.000000pt" height="500.000000pt" viewBox="0 0 500.000000 500.000000"
 preserveAspectRatio="xMidYMid meet">
<metadata>
Created by potrace 1.11, written by Peter Selinger 2001-2013
</metadata>
<g transform="translate(0.000000,500.000000) scale(0.100000,-0.100000)"
fill="#000000" stroke="none">
<path d="M2280 4590 c-489 -61 -918 -267 -1255 -605 -416 -415 -634 -971 -612
-1560 7 -179 24 -296 67 -464 183 -702 744 -1273 1447 -1475 1087 -312 2230
296 2576 1371 142 438 133 938 -23 1363 -260 708 -874 1220 -1620 1351 -132
24 -457 34 -580 19z m554 -429 c663 -137 1183 -649 1325 -1304 80 -369 33
-752 -134 -1093 -237 -486 -685 -826 -1223 -926 -154 -29 -418 -30 -567 -4
-622 112 -1122 535 -1324 1121 -70 201 -86 306 -86 555 1 241 14 330 81 530
202 605 746 1053 1384 1140 113 15 432 4 544 -19z"/>
<path d="M1740 2738 c1 -420 4 -571 14 -628 49 -272 202 -434 472 -502 76 -19
116 -22 269 -22 153 0 193 3 269 22 193 48 333 155 406 307 73 153 73 151 77
798 l4 577 -225 0 -226 0 0 -549 c0 -518 -1 -552 -20 -613 -41 -132 -129 -192
-285 -192 -110 0 -178 26 -230 87 -71 82 -69 68 -73 700 l-3 567 -224 0 -225
0 0 -552z"/>
</g>
</svg>
